<svg width="16" height="12" viewBox="0 0 16 12" fill="none" xmlns="http://www.w3.org/2000/svg">
<path d="M6.95865 1.61294H8.99074C9.93109 1.61379 10.7476 2.26084 10.9632 3.17613C10.9813 3.25243 11.0494 3.30637 11.1278 3.30655H14.2418C14.2867 3.30672 14.3298 3.28899 14.3616 3.25729C14.3934 3.2256 14.4113 3.18253 14.4113 3.13762V1.44339C14.4113 1.08404 14.2685 0.739417 14.0144 0.485377C13.7602 0.231338 13.4155 0.0887026 13.0562 0.0888673H2.89323C2.53388 0.0887026 2.18919 0.231338 1.93504 0.485377C1.68088 0.739417 1.53809 1.08404 1.53809 1.44339V3.13762C1.53809 3.18253 1.55597 3.2256 1.58778 3.25729C1.6196 3.28899 1.66272 3.30672 1.70763 3.30655H4.8216C4.90018 3.30683 4.96849 3.25269 4.98618 3.17613C5.20183 2.26084 6.0183 1.61379 6.95865 1.61294Z" fill="black"/>
<path d="M1.19954 4.32324C1.01979 4.32308 0.847352 4.39441 0.720247 4.52152C0.593142 4.64862 0.521808 4.82106 0.521973 5.00081V8.55759C0.521972 8.87962 0.748624 9.15716 1.06415 9.2215C1.14288 9.23769 1.19943 9.30694 1.19954 9.38732V10.7592C1.19954 11.1334 1.5029 11.4368 1.87711 11.4368C2.25133 11.4368 2.55468 11.1334 2.55468 10.7592V9.40471C2.55452 9.3598 2.57224 9.31668 2.60394 9.28486C2.63564 9.25305 2.6787 9.23516 2.72361 9.23516H13.2256C13.2706 9.23516 13.3136 9.25305 13.3453 9.28486C13.377 9.31668 13.3947 9.3598 13.3946 9.40471V10.7592C13.3946 11.1334 13.6979 11.4368 14.0721 11.4368C14.4464 11.4368 14.7497 11.1334 14.7497 10.7592V9.38732C14.7498 9.30694 14.8064 9.23769 14.8851 9.2215C15.2006 9.15716 15.4273 8.87962 15.4273 8.55759V5.00081C15.4275 4.82106 15.3561 4.64862 15.229 4.52152C15.1019 4.39441 14.9295 4.32308 14.7497 4.32324H1.19954Z" fill="black"/>
</svg>
