<svg width="18" height="18" viewBox="0 0 18 18" fill="none" xmlns="http://www.w3.org/2000/svg">
<path fill-rule="evenodd" clip-rule="evenodd" d="M17.0247 10.2949C17.221 10.2963 17.4082 10.3785 17.5421 10.522C17.6764 10.6628 17.7461 10.8531 17.7345 11.0473C17.5212 14.6112 14.5689 17.3923 10.9987 17.3927H7.4356C3.86533 17.3923 0.913099 14.6112 0.699814 11.0473C0.690463 10.8535 0.759541 10.6642 0.891454 10.522C1.02445 10.3767 1.21259 10.2942 1.40959 10.2949H3.97756C4.13406 10.2964 4.27305 10.1952 4.31968 10.0458C4.50504 9.45635 5.05037 9.05452 5.66825 9.05208H9.22068C9.83856 9.05452 10.3839 9.45635 10.5693 10.0458C10.6155 10.1939 10.7526 10.2948 10.9078 10.2949H14.7172C14.9132 10.2949 15.0721 10.136 15.0721 9.94001V2.48736C15.0729 2.20686 14.9084 1.9522 14.6524 1.83756C14.3964 1.72291 14.0969 1.76978 13.8882 1.95715L13.5972 2.24816C13.5025 2.34353 13.4698 2.48421 13.5127 2.61157C13.7602 3.34256 13.5724 4.15066 13.0279 4.6976L12.886 4.84311C12.6088 5.12019 12.1595 5.12019 11.8823 4.84311L10.005 2.96504C9.7279 2.68787 9.7279 2.23858 10.005 1.96141L10.1505 1.81591C10.7039 1.28721 11.503 1.1051 12.2308 1.34178C12.3573 1.38194 12.4955 1.34827 12.5893 1.25448L12.9179 0.925849C13.5389 0.35201 14.4406 0.199975 15.2154 0.538463C15.9903 0.876951 16.4914 1.64182 16.4923 2.48736V9.94001C16.4923 10.136 16.6512 10.2949 16.8472 10.2949H17.0247ZM8.8623 14.731C9.0583 14.731 9.21719 14.5722 9.21719 14.3762V10.8273C9.21719 10.6313 9.0583 10.4724 8.8623 10.4724H6.0232C5.8272 10.4724 5.66831 10.6313 5.66831 10.8273V14.3762C5.66831 14.5722 5.8272 14.731 6.0232 14.731H8.8623Z" fill="black"/>
<path d="M7.0878 4.67912C7.19028 4.68002 7.29173 4.65871 7.38519 4.61666L8.67415 4.02187C8.90478 3.916 9.06141 3.69513 9.08504 3.44247C9.10867 3.1898 8.99571 2.94372 8.78871 2.79692C8.58171 2.65013 8.31212 2.62492 8.08149 2.73078L6.7904 3.32487C6.48773 3.46453 6.32302 3.796 6.39452 4.12159C6.46602 4.44717 6.75445 4.67913 7.0878 4.67912Z" fill="black"/>
<path d="M10.7233 8.52708C11.0837 8.68084 11.5006 8.5134 11.6545 8.15302L12.2124 6.84703C12.3563 6.4888 12.1875 6.08127 11.8324 5.92971C11.4774 5.77815 11.0663 5.93816 10.9071 6.28986L10.3528 7.59798C10.2 7.95687 10.3655 8.37179 10.7233 8.52708Z" fill="black"/>
<path d="M8.14249 6.80028C8.41828 7.07874 8.86758 7.08097 9.14611 6.80525L10.1554 5.8073C10.4264 5.5304 10.4253 5.08733 10.1529 4.81181C9.88045 4.5363 9.43743 4.53015 9.15747 4.798L8.14817 5.79666C7.86951 6.07225 7.86697 6.52155 8.14249 6.80028Z" fill="black"/>
</svg>
