<svg width="18" height="18" viewBox="0 0 18 18" fill="none" xmlns="http://www.w3.org/2000/svg">
<path d="M5.65192 3.61685C6.04391 3.61685 6.36169 3.29907 6.36169 2.90707V1.13263C6.36169 0.740629 6.04391 0.422852 5.65192 0.422852C5.25992 0.422852 4.94214 0.740629 4.94214 1.13263V2.90707C4.94214 3.29907 5.25992 3.61685 5.65192 3.61685Z" fill="black"/>
<path d="M3.87759 5.39142C3.87759 4.99942 3.55981 4.68164 3.16781 4.68164H1.39337C1.00137 4.68164 0.683594 4.99942 0.683594 5.39142C0.683594 5.78342 1.00137 6.10119 1.39337 6.10119H3.16781C3.55981 6.10119 3.87759 5.78342 3.87759 5.39142Z" fill="black"/>
<path d="M3.16781 11.7793H1.39337C1.00137 11.7793 0.683594 12.0971 0.683594 12.4891C0.683594 12.8811 1.00137 13.1989 1.39337 13.1989H3.16781C3.55981 13.1989 3.87759 12.8811 3.87759 12.4891C3.87759 12.0971 3.55981 11.7793 3.16781 11.7793Z" fill="black"/>
<path d="M12.7498 0.422852C12.3578 0.422852 12.04 0.740629 12.04 1.13263V2.90707C12.04 3.29907 12.3578 3.61685 12.7498 3.61685C13.1418 3.61685 13.4596 3.29907 13.4596 2.90707V1.13263C13.4596 0.740629 13.1418 0.422852 12.7498 0.422852Z" fill="black"/>
<path d="M5.65192 14.2637C5.25992 14.2637 4.94214 14.5814 4.94214 14.9734V16.7479C4.94214 17.1399 5.25992 17.4577 5.65192 17.4577C6.04391 17.4577 6.36169 17.1399 6.36169 16.7479V14.9734C6.36169 14.5814 6.04391 14.2637 5.65192 14.2637Z" fill="black"/>
<path d="M12.7498 14.2637C12.3578 14.2637 12.04 14.5814 12.04 14.9734V16.7479C12.04 17.1399 12.3578 17.4577 12.7498 17.4577C13.1418 17.4577 13.4596 17.1399 13.4596 16.7479V14.9734C13.4596 14.5814 13.1418 14.2637 12.7498 14.2637Z" fill="black"/>
<path d="M15.2339 6.10119H17.0084C17.4004 6.10119 17.7182 5.78342 17.7182 5.39142C17.7182 4.99942 17.4004 4.68164 17.0084 4.68164H15.2339C14.8419 4.68164 14.5242 4.99942 14.5242 5.39142C14.5242 5.78342 14.8419 6.10119 15.2339 6.10119Z" fill="black"/>
<path d="M17.0084 11.7793H15.2339C14.8419 11.7793 14.5242 12.0971 14.5242 12.4891C14.5242 12.8811 14.8419 13.1989 15.2339 13.1989H17.0084C17.4004 13.1989 17.7182 12.8811 17.7182 12.4891C17.7182 12.0971 17.4004 11.7793 17.0084 11.7793Z" fill="black"/>
<path fill-rule="evenodd" clip-rule="evenodd" d="M12.7497 4.68164C13.1417 4.68164 13.4595 4.99942 13.4595 5.39142V12.4892C13.4595 12.8812 13.1417 13.199 12.7497 13.199H5.65192C5.25992 13.199 4.94214 12.8812 4.94214 12.4892V5.39142C4.94214 4.99942 5.25992 4.68164 5.65192 4.68164H12.7497ZM11.685 11.7793C11.881 11.7793 12.0399 11.6204 12.0399 11.4244V6.45598C12.0399 6.25998 11.881 6.10109 11.685 6.10109H6.71654C6.52054 6.10109 6.36165 6.25998 6.36165 6.45598V11.4244C6.36165 11.6204 6.52054 11.7793 6.71654 11.7793H11.685Z" fill="black"/>
</svg>
